<svg id="visual" viewBox="0 0 900 900" width="900" height="900" xmlns="http://www.w3.org/2000/svg" xmlns:xlink="http://www.w3.org/1999/xlink" version="1.1"><path d="M0 118L13.7 119.5C27.3 121 54.7 124 82 143.5C109.3 163 136.7 199 163.8 220C191 241 218 247 245.2 244C272.3 241 299.7 229 327 217C354.3 205 381.7 193 409 185.5C436.3 178 463.7 175 491 182.5C518.3 190 545.7 208 573 206.5C600.3 205 627.7 184 654.8 175C682 166 709 169 736.2 185.5C763.3 202 790.7 232 818 241C845.3 250 872.7 238 886.3 232L900 226L900 0L886.3 0C872.7 0 845.3 0 818 0C790.7 0 763.3 0 736.2 0C709 0 682 0 654.8 0C627.7 0 600.3 0 573 0C545.7 0 518.3 0 491 0C463.7 0 436.3 0 409 0C381.7 0 354.3 0 327 0C299.7 0 272.3 0 245.2 0C218 0 191 0 163.8 0C136.7 0 109.3 0 82 0C54.7 0 27.3 0 13.7 0L0 0Z" fill="#7755a1"></path><path d="M0 172L13.7 184C27.3 196 54.7 220 82 241C109.3 262 136.7 280 163.8 292C191 304 218 310 245.2 314.5C272.3 319 299.7 322 327 322C354.3 322 381.7 319 409 304C436.3 289 463.7 262 491 259C518.3 256 545.7 277 573 283C600.3 289 627.7 280 654.8 280C682 280 709 289 736.2 296.5C763.3 304 790.7 310 818 319C845.3 328 872.7 340 886.3 346L900 352L900 224L886.3 230C872.7 236 845.3 248 818 239C790.7 230 763.3 200 736.2 183.5C709 167 682 164 654.8 173C627.7 182 600.3 203 573 204.5C545.7 206 518.3 188 491 180.5C463.7 173 436.3 176 409 183.5C381.7 191 354.3 203 327 215C299.7 227 272.3 239 245.2 242C218 245 191 239 163.8 218C136.7 197 109.3 161 82 141.5C54.7 122 27.3 119 13.7 117.5L0 116Z" fill="#4b2978"></path><path d="M0 550L13.7 574C27.3 598 54.7 646 82 659.5C109.3 673 136.7 652 163.8 634C191 616 218 601 245.2 602.5C272.3 604 299.7 622 327 617.5C354.3 613 381.7 586 409 545.5C436.3 505 463.7 451 491 457C518.3 463 545.7 529 573 539.5C600.3 550 627.7 505 654.8 485.5C682 466 709 472 736.2 478C763.3 484 790.7 490 818 523C845.3 556 872.7 616 886.3 646L900 676L900 350L886.3 344C872.7 338 845.3 326 818 317C790.7 308 763.3 302 736.2 294.5C709 287 682 278 654.8 278C627.7 278 600.3 287 573 281C545.7 275 518.3 254 491 257C463.7 260 436.3 287 409 302C381.7 317 354.3 320 327 320C299.7 320 272.3 317 245.2 312.5C218 308 191 302 163.8 290C136.7 278 109.3 260 82 239C54.7 218 27.3 194 13.7 182L0 170Z" fill="#39225f"></path><path d="M0 712L13.7 719.5C27.3 727 54.7 742 82 751C109.3 760 136.7 763 163.8 754C191 745 218 724 245.2 719.5C272.3 715 299.7 727 327 722.5C354.3 718 381.7 697 409 662.5C436.3 628 463.7 580 491 593.5C518.3 607 545.7 682 573 686.5C600.3 691 627.7 625 654.8 608.5C682 592 709 625 736.2 631C763.3 637 790.7 616 818 635.5C845.3 655 872.7 715 886.3 745L900 775L900 674L886.3 644C872.7 614 845.3 554 818 521C790.7 488 763.3 482 736.2 476C709 470 682 464 654.8 483.5C627.7 503 600.3 548 573 537.5C545.7 527 518.3 461 491 455C463.7 449 436.3 503 409 543.5C381.7 584 354.3 611 327 615.5C299.7 620 272.3 602 245.2 600.5C218 599 191 614 163.8 632C136.7 650 109.3 671 82 657.5C54.7 644 27.3 596 13.7 572L0 548Z" fill="#4b2978"></path><path d="M0 901L13.7 901C27.3 901 54.7 901 82 901C109.3 901 136.7 901 163.8 901C191 901 218 901 245.2 901C272.3 901 299.7 901 327 901C354.3 901 381.7 901 409 901C436.3 901 463.7 901 491 901C518.3 901 545.7 901 573 901C600.3 901 627.7 901 654.8 901C682 901 709 901 736.2 901C763.3 901 790.7 901 818 901C845.3 901 872.7 901 886.3 901L900 901L900 773L886.3 743C872.7 713 845.3 653 818 633.5C790.7 614 763.3 635 736.2 629C709 623 682 590 654.8 606.5C627.7 623 600.3 689 573 684.5C545.7 680 518.3 605 491 591.5C463.7 578 436.3 626 409 660.5C381.7 695 354.3 716 327 720.5C299.7 725 272.3 713 245.2 717.5C218 722 191 743 163.8 752C136.7 761 109.3 758 82 749C54.7 740 27.3 725 13.7 717.5L0 710Z" fill="#7755a1"></path></svg>