<svg id="visual" viewBox="0 0 900 600" width="900" height="600" xmlns="http://www.w3.org/2000/svg" xmlns:xlink="http://www.w3.org/1999/xlink" version="1.1"><rect x="0" y="0" width="900" height="600" fill="#d3cadf"></rect><defs><linearGradient id="grad1_0" x1="33.3%" y1="100%" x2="100%" y2="0%"><stop offset="20%" stop-color="#8444d6" stop-opacity="1"></stop><stop offset="80%" stop-color="#8444d6" stop-opacity="1"></stop></linearGradient></defs><defs><linearGradient id="grad1_1" x1="33.3%" y1="100%" x2="100%" y2="0%"><stop offset="20%" stop-color="#8444d6" stop-opacity="1"></stop><stop offset="80%" stop-color="#9059d8" stop-opacity="1"></stop></linearGradient></defs><defs><linearGradient id="grad1_2" x1="33.3%" y1="100%" x2="100%" y2="0%"><stop offset="20%" stop-color="#9c6cdb" stop-opacity="1"></stop><stop offset="80%" stop-color="#9059d8" stop-opacity="1"></stop></linearGradient></defs><defs><linearGradient id="grad1_3" x1="33.3%" y1="100%" x2="100%" y2="0%"><stop offset="20%" stop-color="#9c6cdb" stop-opacity="1"></stop><stop offset="80%" stop-color="#a87fdc" stop-opacity="1"></stop></linearGradient></defs><defs><linearGradient id="grad1_4" x1="33.3%" y1="100%" x2="100%" y2="0%"><stop offset="20%" stop-color="#b392de" stop-opacity="1"></stop><stop offset="80%" stop-color="#a87fdc" stop-opacity="1"></stop></linearGradient></defs><defs><linearGradient id="grad1_5" x1="33.3%" y1="100%" x2="100%" y2="0%"><stop offset="20%" stop-color="#b392de" stop-opacity="1"></stop><stop offset="80%" stop-color="#bea5de" stop-opacity="1"></stop></linearGradient></defs><defs><linearGradient id="grad1_6" x1="33.3%" y1="100%" x2="100%" y2="0%"><stop offset="20%" stop-color="#c8b7df" stop-opacity="1"></stop><stop offset="80%" stop-color="#bea5de" stop-opacity="1"></stop></linearGradient></defs><defs><linearGradient id="grad1_7" x1="33.3%" y1="100%" x2="100%" y2="0%"><stop offset="20%" stop-color="#c8b7df" stop-opacity="1"></stop><stop offset="80%" stop-color="#d3cadf" stop-opacity="1"></stop></linearGradient></defs><defs><linearGradient id="grad2_0" x1="0%" y1="100%" x2="66.7%" y2="0%"><stop offset="20%" stop-color="#8444d6" stop-opacity="1"></stop><stop offset="80%" stop-color="#8444d6" stop-opacity="1"></stop></linearGradient></defs><defs><linearGradient id="grad2_1" x1="0%" y1="100%" x2="66.7%" y2="0%"><stop offset="20%" stop-color="#9059d8" stop-opacity="1"></stop><stop offset="80%" stop-color="#8444d6" stop-opacity="1"></stop></linearGradient></defs><defs><linearGradient id="grad2_2" x1="0%" y1="100%" x2="66.7%" y2="0%"><stop offset="20%" stop-color="#9059d8" stop-opacity="1"></stop><stop offset="80%" stop-color="#9c6cdb" stop-opacity="1"></stop></linearGradient></defs><defs><linearGradient id="grad2_3" x1="0%" y1="100%" x2="66.7%" y2="0%"><stop offset="20%" stop-color="#a87fdc" stop-opacity="1"></stop><stop offset="80%" stop-color="#9c6cdb" stop-opacity="1"></stop></linearGradient></defs><defs><linearGradient id="grad2_4" x1="0%" y1="100%" x2="66.7%" y2="0%"><stop offset="20%" stop-color="#a87fdc" stop-opacity="1"></stop><stop offset="80%" stop-color="#b392de" stop-opacity="1"></stop></linearGradient></defs><defs><linearGradient id="grad2_5" x1="0%" y1="100%" x2="66.7%" y2="0%"><stop offset="20%" stop-color="#bea5de" stop-opacity="1"></stop><stop offset="80%" stop-color="#b392de" stop-opacity="1"></stop></linearGradient></defs><defs><linearGradient id="grad2_6" x1="0%" y1="100%" x2="66.7%" y2="0%"><stop offset="20%" stop-color="#bea5de" stop-opacity="1"></stop><stop offset="80%" stop-color="#c8b7df" stop-opacity="1"></stop></linearGradient></defs><defs><linearGradient id="grad2_7" x1="0%" y1="100%" x2="66.7%" y2="0%"><stop offset="20%" stop-color="#d3cadf" stop-opacity="1"></stop><stop offset="80%" stop-color="#c8b7df" stop-opacity="1"></stop></linearGradient></defs><g transform="translate(900, 600)"><path d="M-459.7 0C-446.6 -58.3 -433.5 -116.6 -411.1 -170.3C-388.8 -224 -357.1 -273 -317.5 -317.5C-277.8 -361.9 -230.2 -401.8 -175.9 -424.7C-121.7 -447.6 -60.8 -453.7 0 -459.7L0 0Z" fill="#cec1df"></path><path d="M-402.2 0C-390.8 -51 -379.3 -102 -359.7 -149C-340.2 -196 -312.5 -238.9 -277.8 -277.8C-243.1 -316.7 -201.4 -351.6 -153.9 -371.6C-106.5 -391.7 -53.2 -397 0 -402.2L0 0Z" fill="#c3aedf"></path><path d="M-344.8 0C-334.9 -43.7 -325.1 -87.5 -308.3 -127.7C-291.6 -168 -267.9 -204.8 -238.1 -238.1C-208.4 -271.5 -172.6 -301.3 -131.9 -318.5C-91.3 -335.7 -45.6 -340.3 0 -344.8L0 0Z" fill="#b89cde"></path><path d="M-287.3 0C-279.1 -36.4 -270.9 -72.9 -257 -106.4C-243 -140 -223.2 -170.7 -198.4 -198.4C-173.7 -226.2 -143.9 -251.1 -110 -265.4C-76 -279.8 -38 -283.5 0 -287.3L0 0Z" fill="#ad89dd"></path><path d="M-229.9 0C-223.3 -29.2 -216.7 -58.3 -205.6 -85.1C-194.4 -112 -178.6 -136.5 -158.7 -158.7C-138.9 -181 -115.1 -200.9 -88 -212.4C-60.8 -223.8 -30.4 -226.8 0 -229.9L0 0Z" fill="#a276db"></path><path d="M-172.4 0C-167.5 -21.9 -162.6 -43.7 -154.2 -63.9C-145.8 -84 -133.9 -102.4 -119.1 -119.1C-104.2 -135.7 -86.3 -150.7 -66 -159.3C-45.6 -167.9 -22.8 -170.1 0 -172.4L0 0Z" fill="#9663da"></path><path d="M-114.9 0C-111.6 -14.6 -108.4 -29.2 -102.8 -42.6C-97.2 -56 -89.3 -68.3 -79.4 -79.4C-69.5 -90.5 -57.5 -100.4 -44 -106.2C-30.4 -111.9 -15.2 -113.4 0 -114.9L0 0Z" fill="#8a4fd7"></path><path d="M-57.5 0C-55.8 -7.3 -54.2 -14.6 -51.4 -21.3C-48.6 -28 -44.6 -34.1 -39.7 -39.7C-34.7 -45.2 -28.8 -50.2 -22 -53.1C-15.2 -56 -7.6 -56.7 0 -57.5L0 0Z" fill="#8444d6"></path></g><g transform="translate(0, 0)"><path d="M459.7 0C445.3 56.7 430.9 113.3 411.1 170.3C391.4 227.2 366.3 284.5 325.1 325.1C283.8 365.7 226.4 389.6 169.5 409.3C112.7 428.9 56.3 444.3 0 459.7L0 0Z" fill="#cec1df"></path><path d="M402.2 0C389.6 49.6 377 99.2 359.7 149C342.5 198.8 320.5 248.9 284.4 284.4C248.3 319.9 198.1 340.9 148.3 358.1C98.6 375.3 49.3 388.8 0 402.2L0 0Z" fill="#c3aedf"></path><path d="M344.8 0C334 42.5 323.2 85 308.3 127.7C293.5 170.4 274.7 213.4 243.8 243.8C212.9 274.2 169.8 292.2 127.1 307C84.5 321.7 42.2 333.2 0 344.8L0 0Z" fill="#b89cde"></path><path d="M287.3 0C278.3 35.4 269.3 70.8 257 106.4C244.6 142 228.9 177.8 203.2 203.2C177.4 228.5 141.5 243.5 106 255.8C70.4 268.1 35.2 277.7 0 287.3L0 0Z" fill="#ad89dd"></path><path d="M229.9 0C222.6 28.3 215.4 56.7 205.6 85.1C195.7 113.6 183.2 142.2 162.5 162.5C141.9 182.8 113.2 194.8 84.8 204.6C56.3 214.5 28.2 222.2 0 229.9L0 0Z" fill="#a276db"></path><path d="M172.4 0C167 21.3 161.6 42.5 154.2 63.9C146.8 85.2 137.4 106.7 121.9 121.9C106.4 137.1 84.9 146.1 63.6 153.5C42.2 160.9 21.1 166.6 0 172.4L0 0Z" fill="#9663da"></path><path d="M114.9 0C111.3 14.2 107.7 28.3 102.8 42.6C97.8 56.8 91.6 71.1 81.3 81.3C71 91.4 56.6 97.4 42.4 102.3C28.2 107.2 14.1 111.1 0 114.9L0 0Z" fill="#8a4fd7"></path><path d="M57.5 0C55.7 7.1 53.9 14.2 51.4 21.3C48.9 28.4 45.8 35.6 40.6 40.6C35.5 45.7 28.3 48.7 21.2 51.2C14.1 53.6 7 55.5 0 57.5L0 0Z" fill="#8444d6"></path></g></svg>