<svg id="visual" viewBox="0 0 900 900" width="900" height="900" xmlns="http://www.w3.org/2000/svg" xmlns:xlink="http://www.w3.org/1999/xlink" version="1.1"><path d="M0 136L18.8 124C37.7 112 75.3 88 112.8 79C150.3 70 187.7 76 225.2 88C262.7 100 300.3 118 337.8 118C375.3 118 412.7 100 450.2 88C487.7 76 525.3 70 562.8 82C600.3 94 637.7 124 675.2 125.5C712.7 127 750.3 100 787.8 89.5C825.3 79 862.7 85 881.3 88L900 91L900 0L881.3 0C862.7 0 825.3 0 787.8 0C750.3 0 712.7 0 675.2 0C637.7 0 600.3 0 562.8 0C525.3 0 487.7 0 450.2 0C412.7 0 375.3 0 337.8 0C300.3 0 262.7 0 225.2 0C187.7 0 150.3 0 112.8 0C75.3 0 37.7 0 18.8 0L0 0Z" fill="#0c120a"></path><path d="M0 244L18.8 256C37.7 268 75.3 292 112.8 280C150.3 268 187.7 220 225.2 223C262.7 226 300.3 280 337.8 308.5C375.3 337 412.7 340 450.2 314.5C487.7 289 525.3 235 562.8 239.5C600.3 244 637.7 307 675.2 302.5C712.7 298 750.3 226 787.8 205C825.3 184 862.7 214 881.3 229L900 244L900 89L881.3 86C862.7 83 825.3 77 787.8 87.5C750.3 98 712.7 125 675.2 123.5C637.7 122 600.3 92 562.8 80C525.3 68 487.7 74 450.2 86C412.7 98 375.3 116 337.8 116C300.3 116 262.7 98 225.2 86C187.7 74 150.3 68 112.8 77C75.3 86 37.7 110 18.8 122L0 134Z" fill="#172016"></path><path d="M0 388L18.8 428.5C37.7 469 75.3 550 112.8 551.5C150.3 553 187.7 475 225.2 452.5C262.7 430 300.3 463 337.8 494.5C375.3 526 412.7 556 450.2 557.5C487.7 559 525.3 532 562.8 521.5C600.3 511 637.7 517 675.2 524.5C712.7 532 750.3 541 787.8 524.5C825.3 508 862.7 466 881.3 445L900 424L900 242L881.3 227C862.7 212 825.3 182 787.8 203C750.3 224 712.7 296 675.2 300.5C637.7 305 600.3 242 562.8 237.5C525.3 233 487.7 287 450.2 312.5C412.7 338 375.3 335 337.8 306.5C300.3 278 262.7 224 225.2 221C187.7 218 150.3 266 112.8 278C75.3 290 37.7 266 18.8 254L0 242Z" fill="#2d3f2b"></path><path d="M0 793L18.8 788.5C37.7 784 75.3 775 112.8 764.5C150.3 754 187.7 742 225.2 737.5C262.7 733 300.3 736 337.8 748C375.3 760 412.7 781 450.2 781C487.7 781 525.3 760 562.8 761.5C600.3 763 637.7 787 675.2 787C712.7 787 750.3 763 787.8 755.5C825.3 748 862.7 757 881.3 761.5L900 766L900 422L881.3 443C862.7 464 825.3 506 787.8 522.5C750.3 539 712.7 530 675.2 522.5C637.7 515 600.3 509 562.8 519.5C525.3 530 487.7 557 450.2 555.5C412.7 554 375.3 524 337.8 492.5C300.3 461 262.7 428 225.2 450.5C187.7 473 150.3 551 112.8 549.5C75.3 548 37.7 467 18.8 426.5L0 386Z" fill="#172016"></path><path d="M0 901L18.8 901C37.7 901 75.3 901 112.8 901C150.3 901 187.7 901 225.2 901C262.7 901 300.3 901 337.8 901C375.3 901 412.7 901 450.2 901C487.7 901 525.3 901 562.8 901C600.3 901 637.7 901 675.2 901C712.7 901 750.3 901 787.8 901C825.3 901 862.7 901 881.3 901L900 901L900 764L881.3 759.5C862.7 755 825.3 746 787.8 753.5C750.3 761 712.7 785 675.2 785C637.7 785 600.3 761 562.8 759.5C525.3 758 487.7 779 450.2 779C412.7 779 375.3 758 337.8 746C300.3 734 262.7 731 225.2 735.5C187.7 740 150.3 752 112.8 762.5C75.3 773 37.7 782 18.8 786.5L0 791Z" fill="#0c120a"></path></svg>