<svg id="visual" viewBox="0 0 900 600" width="900" height="600" xmlns="http://www.w3.org/2000/svg" xmlns:xlink="http://www.w3.org/1999/xlink" version="1.1"><rect x="0" y="0" width="900" height="600" fill="#8444d6"></rect><defs><linearGradient id="grad1_0" x1="33.3%" y1="100%" x2="100%" y2="0%"><stop offset="20%" stop-color="#8444d6" stop-opacity="1"></stop><stop offset="80%" stop-color="#8444d6" stop-opacity="1"></stop></linearGradient></defs><defs><linearGradient id="grad2_0" x1="0%" y1="100%" x2="66.7%" y2="0%"><stop offset="20%" stop-color="#8444d6" stop-opacity="1"></stop><stop offset="80%" stop-color="#8444d6" stop-opacity="1"></stop></linearGradient></defs><g transform="translate(900, 600)"><path d="M-459.7 0C-422 -36.1 -384.3 -72.3 -376.6 -122.4C-369 -172.5 -391.4 -236.6 -368.9 -268C-346.5 -299.5 -279.2 -298.4 -236.9 -326C-194.6 -353.7 -177.4 -410.1 -142.1 -437.2C-106.8 -464.3 -53.4 -462 0 -459.7L0 0Z" fill="#d3cadf"></path></g><g transform="translate(0, 0)"><path d="M459.7 0C427.7 39.8 395.7 79.6 379.5 123.3C363.3 167 362.9 214.5 341.4 248C319.9 281.6 277.4 301 242.8 334.1C208.1 367.2 181.2 414 142.1 437.2C102.9 460.4 51.5 460.1 0 459.7L0 0Z" fill="#d3cadf"></path></g></svg>