<svg id="visual" viewBox="0 0 80 15" width="80" height="15" xmlns="http://www.w3.org/2000/svg" xmlns:xlink="http://www.w3.org/1999/xlink" version="1.1"><rect x="0" y="0" width="80" height="15" fill="#e3e3e3"></rect><path d="M27 0L33 0L33 2L27 2L27 4L24 4L24 6L30 6L30 9L30 9L30 11L34 11L34 13L32 13L32 15L0 15L0 13L0 13L0 11L0 11L0 9L0 9L0 6L0 6L0 4L0 4L0 2L0 2L0 0L0 0Z" fill="#8444d6"></path><path d="M17 0L24 0L24 2L21 2L21 4L20 4L20 6L25 6L25 9L22 9L22 11L24 11L24 13L24 13L24 15L0 15L0 13L0 13L0 11L0 11L0 9L0 9L0 6L0 6L0 4L0 4L0 2L0 2L0 0L0 0Z" fill="#6d27b2"></path><path d="M14 0L11 0L11 2L8 2L8 4L13 4L13 6L7 6L7 9L12 9L12 11L16 11L16 13L7 13L7 15L0 15L0 13L0 13L0 11L0 11L0 9L0 9L0 6L0 6L0 4L0 4L0 2L0 2L0 0L0 0Z" fill="#560090"></path></svg>