<svg id="visual" viewBox="0 0 1920 1080" width="1920" height="1080" xmlns="http://www.w3.org/2000/svg" xmlns:xlink="http://www.w3.org/1999/xlink" version="1.1"><path d="M0 260L29.2 260C58.3 260 116.7 260 174.8 260C233 260 291 260 349.2 243.8C407.3 227.7 465.7 195.3 523.8 200.8C582 206.3 640 249.7 698.2 255C756.3 260.3 814.7 227.7 872.8 245.7C931 263.7 989 332.3 1047.2 357.7C1105.3 383 1163.7 365 1221.8 352.3C1280 339.7 1338 332.3 1396.2 335.8C1454.3 339.3 1512.7 353.7 1570.8 332C1629 310.3 1687 252.7 1745.2 241.8C1803.3 231 1861.7 267 1890.8 285L1920 303L1920 0L1890.8 0C1861.7 0 1803.3 0 1745.2 0C1687 0 1629 0 1570.8 0C1512.7 0 1454.3 0 1396.2 0C1338 0 1280 0 1221.8 0C1163.7 0 1105.3 0 1047.2 0C989 0 931 0 872.8 0C814.7 0 756.3 0 698.2 0C640 0 582 0 523.8 0C465.7 0 407.3 0 349.2 0C291 0 233 0 174.8 0C116.7 0 58.3 0 29.2 0L0 0Z" fill="#8444d6"></path><path d="M0 455L29.2 440.5C58.3 426 116.7 397 174.8 395.2C233 393.3 291 418.7 349.2 415.2C407.3 411.7 465.7 379.3 523.8 388.3C582 397.3 640 447.7 698.2 460.2C756.3 472.7 814.7 447.3 872.8 450.8C931 454.3 989 486.7 1047.2 497.5C1105.3 508.3 1163.7 497.7 1221.8 479.7C1280 461.7 1338 436.3 1396.2 434.5C1454.3 432.7 1512.7 454.3 1570.8 443.7C1629 433 1687 390 1745.2 373.8C1803.3 357.7 1861.7 368.3 1890.8 373.7L1920 379L1920 301L1890.8 283C1861.7 265 1803.3 229 1745.2 239.8C1687 250.7 1629 308.3 1570.8 330C1512.7 351.7 1454.3 337.3 1396.2 333.8C1338 330.3 1280 337.7 1221.8 350.3C1163.7 363 1105.3 381 1047.2 355.7C989 330.3 931 261.7 872.8 243.7C814.7 225.7 756.3 258.3 698.2 253C640 247.7 582 204.3 523.8 198.8C465.7 193.3 407.3 225.7 349.2 241.8C291 258 233 258 174.8 258C116.7 258 58.3 258 29.2 258L0 258Z" fill="#ae92c9"></path><path d="M0 757L29.2 744.3C58.3 731.7 116.7 706.3 174.8 715.3C233 724.3 291 767.7 349.2 787.5C407.3 807.3 465.7 803.7 523.8 792.8C582 782 640 764 698.2 767.7C756.3 771.3 814.7 796.7 872.8 816.5C931 836.3 989 850.7 1047.2 841.7C1105.3 832.7 1163.7 800.3 1221.8 787.7C1280 775 1338 782 1396.2 778.3C1454.3 774.7 1512.7 760.3 1570.8 751.3C1629 742.3 1687 738.7 1745.2 742.3C1803.3 746 1861.7 757 1890.8 762.5L1920 768L1920 377L1890.8 371.7C1861.7 366.3 1803.3 355.7 1745.2 371.8C1687 388 1629 431 1570.8 441.7C1512.7 452.3 1454.3 430.7 1396.2 432.5C1338 434.3 1280 459.7 1221.8 477.7C1163.7 495.7 1105.3 506.3 1047.2 495.5C989 484.7 931 452.3 872.8 448.8C814.7 445.3 756.3 470.7 698.2 458.2C640 445.7 582 395.3 523.8 386.3C465.7 377.3 407.3 409.7 349.2 413.2C291 416.7 233 391.3 174.8 393.2C116.7 395 58.3 424 29.2 438.5L0 453Z" fill="#bfbfbf"></path><path d="M0 876L29.2 868.8C58.3 861.7 116.7 847.3 174.8 867.2C233 887 291 941 349.2 946.3C407.3 951.7 465.7 908.3 523.8 888.5C582 868.7 640 872.3 698.2 886.7C756.3 901 814.7 926 872.8 940.3C931 954.7 989 958.3 1047.2 947.7C1105.3 937 1163.7 912 1221.8 906.7C1280 901.3 1338 915.7 1396.2 922.8C1454.3 930 1512.7 930 1570.8 919.2C1629 908.3 1687 886.7 1745.2 883C1803.3 879.3 1861.7 893.7 1890.8 900.8L1920 908L1920 766L1890.8 760.5C1861.7 755 1803.3 744 1745.2 740.3C1687 736.7 1629 740.3 1570.8 749.3C1512.7 758.3 1454.3 772.7 1396.2 776.3C1338 780 1280 773 1221.8 785.7C1163.7 798.3 1105.3 830.7 1047.2 839.7C989 848.7 931 834.3 872.8 814.5C814.7 794.7 756.3 769.3 698.2 765.7C640 762 582 780 523.8 790.8C465.7 801.7 407.3 805.3 349.2 785.5C291 765.7 233 722.3 174.8 713.3C116.7 704.3 58.3 729.7 29.2 742.3L0 755Z" fill="#ae92c9"></path><path d="M0 1081L29.2 1081C58.3 1081 116.7 1081 174.8 1081C233 1081 291 1081 349.2 1081C407.3 1081 465.7 1081 523.8 1081C582 1081 640 1081 698.2 1081C756.3 1081 814.7 1081 872.8 1081C931 1081 989 1081 1047.2 1081C1105.3 1081 1163.7 1081 1221.8 1081C1280 1081 1338 1081 1396.2 1081C1454.3 1081 1512.7 1081 1570.8 1081C1629 1081 1687 1081 1745.2 1081C1803.3 1081 1861.7 1081 1890.8 1081L1920 1081L1920 906L1890.8 898.8C1861.7 891.7 1803.3 877.3 1745.2 881C1687 884.7 1629 906.3 1570.8 917.2C1512.7 928 1454.3 928 1396.2 920.8C1338 913.7 1280 899.3 1221.8 904.7C1163.7 910 1105.3 935 1047.2 945.7C989 956.3 931 952.7 872.8 938.3C814.7 924 756.3 899 698.2 884.7C640 870.3 582 866.7 523.8 886.5C465.7 906.3 407.3 949.7 349.2 944.3C291 939 233 885 174.8 865.2C116.7 845.3 58.3 859.7 29.2 866.8L0 874Z" fill="#8444d6"></path></svg>