<svg id="visual" viewBox="0 0 900 600" width="900" height="600" xmlns="http://www.w3.org/2000/svg" xmlns:xlink="http://www.w3.org/1999/xlink" version="1.1"><rect x="0" y="0" width="900" height="600" fill="#d2b548"></rect><path d="M0 318L21.5 334.5C43 351 86 384 128.8 390.2C171.7 396.3 214.3 375.7 257.2 369.2C300 362.7 343 370.3 385.8 364.2C428.7 358 471.3 338 514.2 339.8C557 341.7 600 365.3 642.8 374.8C685.7 384.3 728.3 379.7 771.2 376.2C814 372.7 857 370.3 878.5 369.2L900 368L900 601L878.5 601C857 601 814 601 771.2 601C728.3 601 685.7 601 642.8 601C600 601 557 601 514.2 601C471.3 601 428.7 601 385.8 601C343 601 300 601 257.2 601C214.3 601 171.7 601 128.8 601C86 601 43 601 21.5 601L0 601Z" fill="#c7ab0c"></path><path d="M0 415L21.5 417.2C43 419.3 86 423.7 128.8 423.3C171.7 423 214.3 418 257.2 409.2C300 400.3 343 387.7 385.8 381.5C428.7 375.3 471.3 375.7 514.2 383.5C557 391.3 600 406.7 642.8 412.7C685.7 418.7 728.3 415.3 771.2 419.2C814 423 857 434 878.5 439.5L900 445L900 601L878.5 601C857 601 814 601 771.2 601C728.3 601 685.7 601 642.8 601C600 601 557 601 514.2 601C471.3 601 428.7 601 385.8 601C343 601 300 601 257.2 601C214.3 601 171.7 601 128.8 601C86 601 43 601 21.5 601L0 601Z" fill="#b8980d"></path><path d="M0 462L21.5 455.5C43 449 86 436 128.8 432.2C171.7 428.3 214.3 433.7 257.2 440.8C300 448 343 457 385.8 461.7C428.7 466.3 471.3 466.7 514.2 470.3C557 474 600 481 642.8 477C685.7 473 728.3 458 771.2 448.5C814 439 857 435 878.5 433L900 431L900 601L878.5 601C857 601 814 601 771.2 601C728.3 601 685.7 601 642.8 601C600 601 557 601 514.2 601C471.3 601 428.7 601 385.8 601C343 601 300 601 257.2 601C214.3 601 171.7 601 128.8 601C86 601 43 601 21.5 601L0 601Z" fill="#a8860e"></path><path d="M0 505L21.5 502.8C43 500.7 86 496.3 128.8 491.7C171.7 487 214.3 482 257.2 488.5C300 495 343 513 385.8 516.3C428.7 519.7 471.3 508.3 514.2 503.7C557 499 600 501 642.8 494.5C685.7 488 728.3 473 771.2 468.8C814 464.7 857 471.3 878.5 474.7L900 478L900 601L878.5 601C857 601 814 601 771.2 601C728.3 601 685.7 601 642.8 601C600 601 557 601 514.2 601C471.3 601 428.7 601 385.8 601C343 601 300 601 257.2 601C214.3 601 171.7 601 128.8 601C86 601 43 601 21.5 601L0 601Z" fill="#97750e"></path><path d="M0 515L21.5 515.2C43 515.3 86 515.7 128.8 515.7C171.7 515.7 214.3 515.3 257.2 517.2C300 519 343 523 385.8 528.5C428.7 534 471.3 541 514.2 544.3C557 547.7 600 547.3 642.8 543.3C685.7 539.3 728.3 531.7 771.2 532C814 532.3 857 540.7 878.5 544.8L900 549L900 601L878.5 601C857 601 814 601 771.2 601C728.3 601 685.7 601 642.8 601C600 601 557 601 514.2 601C471.3 601 428.7 601 385.8 601C343 601 300 601 257.2 601C214.3 601 171.7 601 128.8 601C86 601 43 601 21.5 601L0 601Z" fill="#86640e"></path></svg>