<svg id="visual" viewBox="0 0 1280 920" width="1280" height="920" xmlns="http://www.w3.org/2000/svg" xmlns:xlink="http://www.w3.org/1999/xlink" version="1.1"><rect x="0" y="0" width="1280" height="920" fill="#e1d6ff"></rect><path d="M0 569L21.3 560.3C42.7 551.7 85.3 534.3 128 518.7C170.7 503 213.3 489 256 490.8C298.7 492.7 341.3 510.3 384 509.7C426.7 509 469.3 490 512 489.7C554.7 489.3 597.3 507.7 640 514.8C682.7 522 725.3 518 768 516.5C810.7 515 853.3 516 896 505C938.7 494 981.3 471 1024 462.7C1066.7 454.3 1109.3 460.7 1152 457.7C1194.7 454.7 1237.3 442.3 1258.7 436.2L1280 430L1280 921L1258.7 921C1237.3 921 1194.7 921 1152 921C1109.3 921 1066.7 921 1024 921C981.3 921 938.7 921 896 921C853.3 921 810.7 921 768 921C725.3 921 682.7 921 640 921C597.3 921 554.7 921 512 921C469.3 921 426.7 921 384 921C341.3 921 298.7 921 256 921C213.3 921 170.7 921 128 921C85.3 921 42.7 921 21.3 921L0 921Z" fill="#30205a"></path><path d="M0 510L21.3 525.7C42.7 541.3 85.3 572.7 128 582C170.7 591.3 213.3 578.7 256 576.2C298.7 573.7 341.3 581.3 384 570.5C426.7 559.7 469.3 530.3 512 527.8C554.7 525.3 597.3 549.7 640 567.5C682.7 585.3 725.3 596.7 768 603.7C810.7 610.7 853.3 613.3 896 601.5C938.7 589.7 981.3 563.3 1024 565.2C1066.7 567 1109.3 597 1152 607C1194.7 617 1237.3 607 1258.7 602L1280 597L1280 921L1258.7 921C1237.3 921 1194.7 921 1152 921C1109.3 921 1066.7 921 1024 921C981.3 921 938.7 921 896 921C853.3 921 810.7 921 768 921C725.3 921 682.7 921 640 921C597.3 921 554.7 921 512 921C469.3 921 426.7 921 384 921C341.3 921 298.7 921 256 921C213.3 921 170.7 921 128 921C85.3 921 42.7 921 21.3 921L0 921Z" fill="#442773"></path><path d="M0 640L21.3 636C42.7 632 85.3 624 128 616C170.7 608 213.3 600 256 611.3C298.7 622.7 341.3 653.3 384 668C426.7 682.7 469.3 681.3 512 680.5C554.7 679.7 597.3 679.3 640 666C682.7 652.7 725.3 626.3 768 624.3C810.7 622.3 853.3 644.7 896 655.8C938.7 667 981.3 667 1024 670.2C1066.7 673.3 1109.3 679.7 1152 671.8C1194.7 664 1237.3 642 1258.7 631L1280 620L1280 921L1258.7 921C1237.3 921 1194.7 921 1152 921C1109.3 921 1066.7 921 1024 921C981.3 921 938.7 921 896 921C853.3 921 810.7 921 768 921C725.3 921 682.7 921 640 921C597.3 921 554.7 921 512 921C469.3 921 426.7 921 384 921C341.3 921 298.7 921 256 921C213.3 921 170.7 921 128 921C85.3 921 42.7 921 21.3 921L0 921Z" fill="#512b81"></path><path d="M0 743L21.3 733.5C42.7 724 85.3 705 128 711.7C170.7 718.3 213.3 750.7 256 754.2C298.7 757.7 341.3 732.3 384 725.7C426.7 719 469.3 731 512 743.8C554.7 756.7 597.3 770.3 640 762.7C682.7 755 725.3 726 768 723.7C810.7 721.3 853.3 745.7 896 747.7C938.7 749.7 981.3 729.3 1024 728C1066.7 726.7 1109.3 744.3 1152 752.5C1194.7 760.7 1237.3 759.3 1258.7 758.7L1280 758L1280 921L1258.7 921C1237.3 921 1194.7 921 1152 921C1109.3 921 1066.7 921 1024 921C981.3 921 938.7 921 896 921C853.3 921 810.7 921 768 921C725.3 921 682.7 921 640 921C597.3 921 554.7 921 512 921C469.3 921 426.7 921 384 921C341.3 921 298.7 921 256 921C213.3 921 170.7 921 128 921C85.3 921 42.7 921 21.3 921L0 921Z" fill="#442773"></path><path d="M0 791L21.3 799.2C42.7 807.3 85.3 823.7 128 831.7C170.7 839.7 213.3 839.3 256 833.7C298.7 828 341.3 817 384 819.3C426.7 821.7 469.3 837.3 512 839.5C554.7 841.7 597.3 830.3 640 822.5C682.7 814.7 725.3 810.3 768 803.2C810.7 796 853.3 786 896 787C938.7 788 981.3 800 1024 804.5C1066.7 809 1109.3 806 1152 806.2C1194.7 806.3 1237.3 809.7 1258.7 811.3L1280 813L1280 921L1258.7 921C1237.3 921 1194.7 921 1152 921C1109.3 921 1066.7 921 1024 921C981.3 921 938.7 921 896 921C853.3 921 810.7 921 768 921C725.3 921 682.7 921 640 921C597.3 921 554.7 921 512 921C469.3 921 426.7 921 384 921C341.3 921 298.7 921 256 921C213.3 921 170.7 921 128 921C85.3 921 42.7 921 21.3 921L0 921Z" fill="#30205a"></path></svg>