<svg id="visual" viewBox="0 0 900 600" width="900" height="600" xmlns="http://www.w3.org/2000/svg" xmlns:xlink="http://www.w3.org/1999/xlink" version="1.1"><path d="M0 37L13.7 39C27.3 41 54.7 45 82 52C109.3 59 136.7 69 163.8 74C191 79 218 79 245.2 77C272.3 75 299.7 71 327 67C354.3 63 381.7 59 409 55C436.3 51 463.7 47 491 47C518.3 47 545.7 51 573 60C600.3 69 627.7 83 654.8 90C682 97 709 97 736.2 90C763.3 83 790.7 69 818 60C845.3 51 872.7 47 886.3 45L900 43L900 0L886.3 0C872.7 0 845.3 0 818 0C790.7 0 763.3 0 736.2 0C709 0 682 0 654.8 0C627.7 0 600.3 0 573 0C545.7 0 518.3 0 491 0C463.7 0 436.3 0 409 0C381.7 0 354.3 0 327 0C299.7 0 272.3 0 245.2 0C218 0 191 0 163.8 0C136.7 0 109.3 0 82 0C54.7 0 27.3 0 13.7 0L0 0Z" fill="#8444d6"></path><path d="M0 271L13.7 263C27.3 255 54.7 239 82 241C109.3 243 136.7 263 163.8 259C191 255 218 227 245.2 236C272.3 245 299.7 291 327 298C354.3 305 381.7 273 409 260C436.3 247 463.7 253 491 249C518.3 245 545.7 231 573 226C600.3 221 627.7 225 654.8 227C682 229 709 229 736.2 222C763.3 215 790.7 201 818 201C845.3 201 872.7 215 886.3 222L900 229L900 41L886.3 43C872.7 45 845.3 49 818 58C790.7 67 763.3 81 736.2 88C709 95 682 95 654.8 88C627.7 81 600.3 67 573 58C545.7 49 518.3 45 491 45C463.7 45 436.3 49 409 53C381.7 57 354.3 61 327 65C299.7 69 272.3 73 245.2 75C218 77 191 77 163.8 72C136.7 67 109.3 57 82 50C54.7 43 27.3 39 13.7 37L0 35Z" fill="#6c34b2"></path><path d="M0 391L13.7 395C27.3 399 54.7 407 82 418C109.3 429 136.7 443 163.8 438C191 433 218 409 245.2 403C272.3 397 299.7 409 327 407C354.3 405 381.7 389 409 386C436.3 383 463.7 393 491 399C518.3 405 545.7 407 573 399C600.3 391 627.7 373 654.8 375C682 377 709 399 736.2 403C763.3 407 790.7 393 818 385C845.3 377 872.7 375 886.3 374L900 373L900 227L886.3 220C872.7 213 845.3 199 818 199C790.7 199 763.3 213 736.2 220C709 227 682 227 654.8 225C627.7 223 600.3 219 573 224C545.7 229 518.3 243 491 247C463.7 251 436.3 245 409 258C381.7 271 354.3 303 327 296C299.7 289 272.3 243 245.2 234C218 225 191 253 163.8 257C136.7 261 109.3 241 82 239C54.7 237 27.3 253 13.7 261L0 269Z" fill="#5e2b9c"></path><path d="M0 469L13.7 470C27.3 471 54.7 473 82 487C109.3 501 136.7 527 163.8 519C191 511 218 469 245.2 462C272.3 455 299.7 483 327 489C354.3 495 381.7 479 409 481C436.3 483 463.7 503 491 512C518.3 521 545.7 519 573 510C600.3 501 627.7 485 654.8 476C682 467 709 465 736.2 466C763.3 467 790.7 471 818 466C845.3 461 872.7 447 886.3 440L900 433L900 371L886.3 372C872.7 373 845.3 375 818 383C790.7 391 763.3 405 736.2 401C709 397 682 375 654.8 373C627.7 371 600.3 389 573 397C545.7 405 518.3 403 491 397C463.7 391 436.3 381 409 384C381.7 387 354.3 403 327 405C299.7 407 272.3 395 245.2 401C218 407 191 431 163.8 436C136.7 441 109.3 427 82 416C54.7 405 27.3 397 13.7 393L0 389Z" fill="#6c34b2"></path><path d="M0 601L13.7 601C27.3 601 54.7 601 82 601C109.3 601 136.7 601 163.8 601C191 601 218 601 245.2 601C272.3 601 299.7 601 327 601C354.3 601 381.7 601 409 601C436.3 601 463.7 601 491 601C518.3 601 545.7 601 573 601C600.3 601 627.7 601 654.8 601C682 601 709 601 736.2 601C763.3 601 790.7 601 818 601C845.3 601 872.7 601 886.3 601L900 601L900 431L886.3 438C872.7 445 845.3 459 818 464C790.7 469 763.3 465 736.2 464C709 463 682 465 654.8 474C627.7 483 600.3 499 573 508C545.7 517 518.3 519 491 510C463.7 501 436.3 481 409 479C381.7 477 354.3 493 327 487C299.7 481 272.3 453 245.2 460C218 467 191 509 163.8 517C136.7 525 109.3 499 82 485C54.7 471 27.3 469 13.7 468L0 467Z" fill="#8444d6"></path></svg>