<svg id="visual" viewBox="0 0 900 600" width="900" height="600" xmlns="http://www.w3.org/2000/svg" xmlns:xlink="http://www.w3.org/1999/xlink" version="1.1"><rect x="0" y="0" width="900" height="600" fill="#282828"></rect><path d="M0 331L21.5 338C43 345 86 359 128.8 368.7C171.7 378.3 214.3 383.7 257.2 376.5C300 369.3 343 349.7 385.8 352.2C428.7 354.7 471.3 379.3 514.2 390.3C557 401.3 600 398.7 642.8 386C685.7 373.3 728.3 350.7 771.2 348.8C814 347 857 366 878.5 375.5L900 385L900 601L878.5 601C857 601 814 601 771.2 601C728.3 601 685.7 601 642.8 601C600 601 557 601 514.2 601C471.3 601 428.7 601 385.8 601C343 601 300 601 257.2 601C214.3 601 171.7 601 128.8 601C86 601 43 601 21.5 601L0 601Z" fill="#1c1c1c"></path><path d="M0 426L21.5 421.2C43 416.3 86 406.7 128.8 410.7C171.7 414.7 214.3 432.3 257.2 438.8C300 445.3 343 440.7 385.8 432C428.7 423.3 471.3 410.7 514.2 403C557 395.3 600 392.7 642.8 395.8C685.7 399 728.3 408 771.2 410.3C814 412.7 857 408.3 878.5 406.2L900 404L900 601L878.5 601C857 601 814 601 771.2 601C728.3 601 685.7 601 642.8 601C600 601 557 601 514.2 601C471.3 601 428.7 601 385.8 601C343 601 300 601 257.2 601C214.3 601 171.7 601 128.8 601C86 601 43 601 21.5 601L0 601Z" fill="#171717"></path><path d="M0 476L21.5 465.2C43 454.3 86 432.7 128.8 429.7C171.7 426.7 214.3 442.3 257.2 449C300 455.7 343 453.3 385.8 455.8C428.7 458.3 471.3 465.7 514.2 466.7C557 467.7 600 462.3 642.8 454.3C685.7 446.3 728.3 435.7 771.2 435.8C814 436 857 447 878.5 452.5L900 458L900 601L878.5 601C857 601 814 601 771.2 601C728.3 601 685.7 601 642.8 601C600 601 557 601 514.2 601C471.3 601 428.7 601 385.8 601C343 601 300 601 257.2 601C214.3 601 171.7 601 128.8 601C86 601 43 601 21.5 601L0 601Z" fill="#111111"></path><path d="M0 530L21.5 522.3C43 514.7 86 499.3 128.8 492.7C171.7 486 214.3 488 257.2 484.5C300 481 343 472 385.8 473.2C428.7 474.3 471.3 485.7 514.2 493.5C557 501.3 600 505.7 642.8 499.3C685.7 493 728.3 476 771.2 479C814 482 857 505 878.5 516.5L900 528L900 601L878.5 601C857 601 814 601 771.2 601C728.3 601 685.7 601 642.8 601C600 601 557 601 514.2 601C471.3 601 428.7 601 385.8 601C343 601 300 601 257.2 601C214.3 601 171.7 601 128.8 601C86 601 43 601 21.5 601L0 601Z" fill="#090909"></path><path d="M0 549L21.5 544.8C43 540.7 86 532.3 128.8 530.7C171.7 529 214.3 534 257.2 533.5C300 533 343 527 385.8 527.7C428.7 528.3 471.3 535.7 514.2 537.8C557 540 600 537 642.8 536.8C685.7 536.7 728.3 539.3 771.2 540.8C814 542.3 857 542.7 878.5 542.8L900 543L900 601L878.5 601C857 601 814 601 771.2 601C728.3 601 685.7 601 642.8 601C600 601 557 601 514.2 601C471.3 601 428.7 601 385.8 601C343 601 300 601 257.2 601C214.3 601 171.7 601 128.8 601C86 601 43 601 21.5 601L0 601Z" fill="#000000"></path></svg>